<svg xmlns="http://www.w3.org/2000/svg" width="32" height="32">
    <path fill="#fff"
        d="M21.132 6.175c1.556 0 2.52.481 3.312 1.318.524.553 1.611 1.729 2.1 2.313.27.322.498.804.298 1.145-.168.287-.346.628-.906.628-.535 0-3.568-.009-3.904-.009l.001.011-.005 1.568h.005a.518.518 0 0 1 .518-.517h.002c1.624.007 4.062.04 5.321.04h.019c.115 0 .225.025.324.069l-.005-.002c.135.071.246.17.329.29l.002.003c.765 1.035 2.017 2.892 2.705 4.059.172.261.28.578.296.919v.004c.004 1.126.021 1.982.03 3.398a.178.178 0 0 1 .205.176l.006 1.29v.004a.711.711 0 0 1-.708.711l-2.809.009-4.469.016c-.891 0-10.333-.008-11.369-.007l-4.368.007c-.727 0-4.598-.002-6.118 0h-.001a.71.71 0 0 1-.71-.71v-1.635c0-3.369.018-11.416.02-14.684 0-.196.159-.355.355-.355 3.927-.003 17.08-.058 19.495-.058z" />
    <path fill="#bdbdbd"
        d="M22.032 13.149a.518.518 0 0 1 .518-.517h.002c.949.004 2.176.017 3.283.027.14-.293.293-.669.425-1.054l.025-.083a.985.985 0 0 1-.333.057h-.018.001c-.535 0-3.569-.009-3.904-.009l.001.011c-.001.491-.004.516-.008 1.587z" />
    <path fill="#211715"
        d="m2.808 13.465 1.914.005 1.537.004c.149 0 .315-.02.447.064.247.157.179.537.179.79l.003.874.007 2.156.006 1.941.001.349c0 .159.012.32-.105.446-.128.136-.299.125-.468.124l-.413-.001-2.23-.008c-.304-.001-.619.022-.922-.005a.394.394 0 0 1-.298-.175l-.001-.001c-.072-.113-.063-.239-.063-.367l.001-.763c.002-1.664.011-3.328.014-4.992.001-.244.14-.422.391-.441a.215.215 0 0 1 .213.213.216.216 0 0 1-.213.213.102.102 0 0 0 .026-.011h-.001c.034-.039.001-.03.01-.018s0 .062 0 .078v.174l-.001.415-.004 1.054-.008 2.682-.002 1.414v.096q.007.071-.009.012c-.032-.013-.031-.003-.008-.01a.763.763 0 0 1 .202.001h-.004l.443.001 2.113.007.835.003a.566.566 0 0 1 .113-.001h-.002c-.027-.041-.019.082-.036.017l-.002-.04.002-.042v.002l-.001-.31-.005-1.761-.012-3.646a.454.454 0 0 1 .001-.134v.002c.01-.02-.003-.008.01.014.019.032.037 0 .01.009l-.025.001-.026-.002h.001l-.363-.001-.958-.003-1.974-.006-.324-.001c-.276 0-.277-.427-.001-.426z" />
    <path fill="#87cce3"
        d="M23.323 14.018a.335.335 0 0 1 .335-.333c.992-.001 2.441-.006 3.314-.006l.038-.001c.115 0 .225.022.326.062l-.006-.002a.91.91 0 0 1 .31.297l.002.004c.519.7 1.374 1.983 2.065 3.073a.52.52 0 0 1-.558.783l.004.001c-1.795-.413-4.123-.937-5.59-1.292a.327.327 0 0 1-.249-.317v-.002l.011-2.269z" />
    <path fill="#211715"
        d="M1.03 9.819a.985.985 0 0 0-.315.125l.004-.002c-.07.051-.075.166-.076.257v.176l-.001.624-.002 2.053-.003 2.639-.003 2.601-.001 1.946v.164c0 .275-.427.275-.427 0l.001-1.869.003-2.602.003-2.71.002-2.144.001-.666c0-.33.001-.675.327-.863.107-.056.231-.104.36-.139l.013-.003c.262-.083.375.329.113.412z" />
    <path fill="#211715"
        d="m.986 11.633-.772-.002a.213.213 0 0 1 0-.426l.772.002a.213.213 0 0 1 0 .426zM.986 12.825l-.772-.002a.213.213 0 0 1 0-.426l.772.002a.213.213 0 0 1 0 .426zM7.093 15.332l-.002.291a.22.22 0 0 1-.062.151.234.234 0 0 1-.151.062.216.216 0 0 1-.151-.062.22.22 0 0 1-.062-.151l.002-.291a.22.22 0 0 1 .062-.151.234.234 0 0 1 .151-.062c.059 0 .112.024.151.062a.22.22 0 0 1 .062.151zM7.093 18.118l-.002.291a.22.22 0 0 1-.062.151.234.234 0 0 1-.151.062.216.216 0 0 1-.151-.062.22.22 0 0 1-.062-.151l.002-.291a.22.22 0 0 1 .062-.151.234.234 0 0 1 .151-.062c.059 0 .112.024.151.062a.22.22 0 0 1 .062.151zM26.191 21.01h.049a2.458 2.458 0 0 1 2.458 2.458v.036-.002c0 1.555-.969 2.538-2.507 2.538-1.573 0-2.507-.983-2.507-2.538 0-1.352 1.03-2.491 2.507-2.491z" />
    <path fill="#fff"
        d="M26.191 22.69h.016c.45 0 .816.365.816.816v.012-.001c0 .516-.322.842-.832.842-.522 0-.832-.326-.832-.842v-.012c0-.45.365-.815.815-.815h.018-.001z" />
    <path fill="#211715"
        d="M10.157 21.01h.049a2.458 2.458 0 0 1 2.458 2.458v.036-.002c0 1.555-.969 2.538-2.507 2.538-1.573 0-2.507-.983-2.507-2.538 0-1.352 1.03-2.491 2.507-2.491z" />
    <path fill="#fff"
        d="M10.157 22.69h.016c.45 0 .816.365.816.816v.012-.001c0 .516-.322.842-.832.842-.522 0-.832-.326-.832-.842v-.012c0-.45.365-.815.815-.815h.018-.001z" />
    <path fill="#211715"
        d="m21.132 5.962.089-.001c.594 0 1.166.095 1.701.27l-.039-.011c.508.178.947.433 1.326.756l-.006-.005c.36.302.67.666.989 1.01.372.401.741.805 1.104 1.214.353.398.768.812.829 1.367.029.268-.084.493-.23.709a1.137 1.137 0 0 1-.548.454l-.008.003c-.29.105-.651.063-.956.062l-1.184-.003-2.091-.005h-.085c-.275 0-.275-.427 0-.427 1.273 0 2.546.008 3.818.009a.893.893 0 0 0 .483-.098l-.005.002c.147-.091.233-.244.327-.408.117-.204.032-.444-.073-.636a3.167 3.167 0 0 0-.415-.542l.001.001a55.997 55.997 0 0 0-1.034-1.147c-.308-.335-.611-.676-.933-.997A3.735 3.735 0 0 0 22.96 6.7l-.025-.009a4.826 4.826 0 0 0-1.708-.306l-.102.001h.005c-.275-.001-.275-.428 0-.427zM31.361 21.365c-.008-1.105-.021-2.21-.03-3.315-.004-.516-.32-.948-.582-1.37a66.74 66.74 0 0 0-1.741-2.633q-.203-.29-.409-.578c-.12-.167-.237-.376-.407-.497-.178-.126-.43-.087-.636-.088l-.669-.004q-.777-.005-1.555-.013l-1.825-.017-.835-.005c-.112-.001-.221-.009-.314.066a.313.313 0 0 0-.113.237c-.009.274-.436.276-.427 0a.74.74 0 0 1 .419-.659l.004-.002c.236-.107.519-.068.771-.067q.84.005 1.679.014c1.029.01 2.058.022 3.087.023.308 0 .579.064.801.289.159.179.308.375.442.581l.012.019q.458.64.898 1.295.474.702.929 1.416.201.317.396.637c.142.213.273.458.38.714l.011.029c.119.322.108.654.11.992l.008.892c.007.681.015 1.362.02 2.044.002.275-.425.275-.427 0z" />
    <path fill="#211715"
        d="m22.246 11.581-.006 1.798-.009 2.684-.01 2.959q-.005 1.328-.008 2.657-.003.884-.004 1.769v.131c0 .275-.427.275-.427 0q0-.807.003-1.615l.008-2.59.01-2.953.01-2.74.006-1.941v-.159c.001-.275.428-.275.427 0zM23.109 14.018a.563.563 0 0 1 .224-.438l.001-.001a.675.675 0 0 1 .434-.107h-.003l.938-.002 1.908-.004c.299 0 .653-.044.91.139.229.163.384.434.545.66.377.53.739 1.071 1.096 1.614q.291.443.577.89c.165.259.33.511.231.831a.744.744 0 0 1-.619.519h-.004l-.048.001c-.146 0-.287-.023-.419-.066l.01.003-.47-.108c-1.317-.302-2.635-.6-3.951-.908q-.414-.097-.827-.196c-.151-.036-.297-.072-.405-.193a.616.616 0 0 1-.142-.394l.002-.048v.002l.009-1.841.002-.352c.001-.275.428-.275.427 0l-.008 1.581-.002.423c0 .09-.032.247.015.324.045.074.18.078.259.097l.371.088c1.181.279 2.365.548 3.548.818l.904.207.433.099a.556.556 0 0 0 .317.024l-.004.001a.31.31 0 0 0 .186-.396l.001.002a2.1 2.1 0 0 0-.219-.356l.004.005q-.129-.202-.26-.403-.511-.788-1.041-1.563c-.148-.215-.298-.43-.451-.642-.067-.092-.131-.188-.206-.274a.418.418 0 0 0-.322-.16c-.255-.014-.514-.002-.769-.002l-.878.002-.907.002c-.277.001-.557-.011-.834.001l-.012-.001a.125.125 0 0 0-.125.12c-.014.274-.441.276-.427.001zM1.448 21.168l-.002.991-.001.557c0 .146-.014.292.058.425a.501.501 0 0 0 .314.248l.003.001a1.458 1.458 0 0 0 .362.015h-.005l.78-.001h5.105c.275 0 .275.427 0 .427L4.97 23.83H2.982l-.796.001a2.296 2.296 0 0 1-.434-.019l.012.001a.913.913 0 0 1-.496-.273v-.001c-.308-.335-.25-.779-.249-1.199l.002-1.173c0-.275.427-.275.427 0zM22.537 8.839l-12.499.007-4.048.002-2.621.001h-.184c-.275 0-.275-.427 0-.427l2.388-.001 3.929-.002 13.035-.007c.275 0 .275.427 0 .427z" />
    <path fill="#211715"
        d="M6.688 21.624q-1.668 0-3.335.003h-.722c-.275 0-.275-.427 0-.427q1.731 0 3.462-.003h.595c.275 0 .275.427 0 .427zM21.101 6.388q-.941 0-1.883.004-1.514.004-3.027.01l-3.693.013-3.879.013-3.585.011-2.812.007-.523.001c-.096 0-.203-.005-.232.109a1.422 1.422 0 0 0-.003.33l-.001-.006-.002 1.583-.006 4.038-.007 4.372-.004 3.713v.686c0 .275-.427.275-.427 0q0-1.717.003-3.434l.007-4.354.007-4.226.002-1.753.001-.731c0-.16-.008-.319.073-.464a.584.584 0 0 1 .505-.29h.004c.838-.023 1.68-.003 2.519-.006l3.441-.01 3.873-.013 3.816-.013 3.268-.011 2.237-.006h.329c.275 0 .275.427 0 .427zM23.799 23.831l-1.373-.001-8.279-.006-1.627-.001h-.09c-.275 0-.275-.427 0-.427h1.441l2.606.002 5.68.004 1.563.001h.08c.275 0 .275.427 0 .427z" />
    <path fill="#87cce3"
        d="M10.734 11.569c2.47.02 5.984.034 7.098.036.107 0 .194.087.195.194.004.743.026 2.717.028 4.086v.001a.195.195 0 0 1-.195.195h-.001c-1.226-.003-5.505-.027-7.155-.029a.195.195 0 0 1-.195-.195c.002-1.368.022-3.443.027-4.094a.196.196 0 0 1 .195-.194h.002z" />
    <path fill="#211715"
        d="M10.734 11.356q2.818.023 5.636.031l1.016.003.381.001c.252 0 .461.137.474.408.016.333.005.671.008 1.005l.012 1.409.008 1.453a1.235 1.235 0 0 1-.016.34l.001-.008a.416.416 0 0 1-.277.279l-.003.001a1.328 1.328 0 0 1-.382.014h.006l-1.954-.008q-2.32-.011-4.641-.019c-.155 0-.347.027-.487-.048-.246-.131-.218-.396-.218-.633q.002-.701.007-1.402.008-1.181.019-2.361c.002-.256.144-.449.411-.466a.213.213 0 0 1 0 .426c.013-.001.016-.02.016-.02-.002.012-.002.026-.002.04l.002.036v-.001l-.002.181-.004.466-.01 1.223-.009 1.378-.002.638v.134c0-.007-.012-.019-.018-.018a1.394 1.394 0 0 1 .195 0h-.005q2.161.004 4.323.017l2.013.009.366.001a1.19 1.19 0 0 0 .268-.002l-.006.001c-.035.009-.017.036-.017-.042v-.142l-.001-.343-.004-.687-.02-2.514-.002-.202-.001-.093c-.002-.074-.009-.019.017-.022-.085.009-.198-.002-.291-.003l-.9-.003q-2.632-.009-5.263-.027l-.643-.005c-.275-.003-.276-.429 0-.427z" />
    <path fill="#211715"
        d="M14.495 16.051c-1.08-.91-2.167-1.813-3.272-2.691l-.217-.171-.101-.079-.064-.05-.004-.003c-.104-.08-.209-.16-.316-.237a.218.218 0 0 1-.076-.293l-.001.001a.216.216 0 0 1 .293-.076l-.001-.001c.525.378 1.024.792 1.526 1.2q.917.745 1.824 1.503l.711.595a.216.216 0 0 1 0 .302c-.039.038-.092.061-.151.061s-.112-.023-.151-.061zM11.595 15.155c-.395-.306-.782-.623-1.177-.929a.212.212 0 0 1 0-.302.218.218 0 0 1 .302 0c.395.306.782.623 1.177.929a.212.212 0 0 1 0 .302.218.218 0 0 1-.302 0zM26.461 11.67c-.125.358-.266.71-.422 1.055a.215.215 0 0 1-.293.076l.001.001a.218.218 0 0 1-.076-.293l-.001.001q.056-.123.109-.248l.009-.02.03-.071.047-.116q.098-.247.185-.498a.213.213 0 1 1 .411.114v-.002zM29.585 21.207c.616 0 1.233-.007 1.849-.009.188-.001.381-.001.495.178.084.132.064.298.064.448.001.351.011.703.005 1.054a.945.945 0 0 1-.43.785l-.004.002c-.223.142-.47.141-.724.142l-1.467.005-1.105.003c-.275 0-.275-.427 0-.427.724 0 1.449-.004 2.173-.007l.575-.002c.213-.001.405-.078.505-.28a.732.732 0 0 0 .049-.359v.003l-.003-.507-.002-.461c0-.039-.02-.142-.001-.174.014-.024-.008 0 .009.013a.11.11 0 0 1 .027.012h-.001l-.034.001-.06-.002h.003c-.641.002-1.282.009-1.923.01-.275 0-.275-.427 0-.427zM23.19 18.405a.492.492 0 0 1 .263-.431l.003-.001c.155-.078.343-.053.511-.053h.565c.159 0 .35-.027.501.029a.495.495 0 0 1 .105.864l-.002.001c-.148.101-.33.081-.5.081h-.82a.978.978 0 0 1-.291-.022l.006.001a.494.494 0 0 1-.342-.469c-.004-.229.352-.229.356 0v.006c0 .067.05.122.115.129h.001a2.78 2.78 0 0 0 .378 0h-.009.792c.079 0 .154-.016.171-.107a.132.132 0 0 0-.078-.149h-.001a.415.415 0 0 0-.145-.008h.002-1.053c-.088 0-.172.025-.174.129-.005.229-.361.23-.356 0zM20.601 21.512l-2.416.002-3.439.003-1.312.001c-.275 0-.275-.427 0-.427l2.762-.002 3.342-.003 1.063-.001c.275 0 .275.427 0 .427z" />
    <path fill="#211715"
        d="M31.496 19.678c-.212 0-.424.004-.636.006l-.075.001-.039.001c.015-.001.014 0 0 .003a.12.12 0 0 0-.049.029c-.031.033 0-.013-.019.028.014-.029-.009.03-.01.034.005-.029.001.018.001.027l.001.084c.005.439.015.878.022 1.317.004.275-.422.275-.427 0l-.013-.736-.006-.393a2.593 2.593 0 0 1 .004-.371l-.001.009a.537.537 0 0 1 .521-.459h.001c.241-.011.485-.007.726-.007.275 0 .275.427 0 .427z" />
</svg>